<?xml version="1.0" encoding="utf-8"?>
<!-- Generator: Adobe Illustrator 24.3.0, SVG Export Plug-In . SVG Version: 6.00 Build 0)  -->
<svg version="1.1" id="Layer_1" xmlns="http://www.w3.org/2000/svg" xmlns:xlink="http://www.w3.org/1999/xlink" x="0px" y="0px"
	 viewBox="0 0 422.4 230.36" style="enable-background:new 0 0 422.4 230.36;" xml:space="preserve">
<style type="text/css">
	.st0{fill:#1A1A1A;}
</style>
<g>
	<g>
		<g>
			<path class="st0" d="M12.94,226.3c-1.08,0.65-2.47,1.1-3.71,0.51c-2.99-1.43-2.62-5.16-4.17-7.74c-1.33-2.2-5.05-3.94-5.05-6.69
				c0-1.63,1.09-2.9,2.33-3.65c1.7-1.02,3.85-0.7,6.05,0.38c0.89,0.44,3,0.24,4.82,0.48c1.83,0.24,3.39,0.99,4.07,2.11
				c0.94,1.55,0.83,3.12,0.24,4.57c-0.7,1.69-2,3.2-2.08,4.32C15.24,222.98,14.91,225.11,12.94,226.3z"/>
			
				<ellipse transform="matrix(0.5616 -0.8274 0.8274 0.5616 -162.4088 98.1059)" class="st0" cx="11.37" cy="202.31" rx="4.93" ry="3.47"/>
			
				<ellipse transform="matrix(0.7998 -0.6002 0.6002 0.7998 -118.5798 53.3349)" class="st0" cx="20.68" cy="204.45" rx="5.42" ry="3.55"/>
			
				<ellipse transform="matrix(0.9938 -0.1115 0.1115 0.9938 -24.5352 3.9244)" class="st0" cx="22.81" cy="221.25" rx="4.93" ry="3.47"/>
			
				<ellipse transform="matrix(0.9037 -0.4282 0.4282 0.9037 -88.3521 31.2278)" class="st0" cx="25.24" cy="212.02" rx="5.42" ry="3.55"/>
		</g>
		<g>
			<path class="st0" d="M0.96,160.58c-0.55,1.13-0.88,2.56-0.19,3.74c1.68,2.85,5.37,2.15,8.08,3.48c2.31,1.13,4.37,4.68,7.11,4.44
				c1.62-0.14,2.8-1.34,3.43-2.64c0.87-1.78,0.35-3.9-0.91-5.99c-0.51-0.84-0.5-2.97-0.9-4.76c-0.4-1.8-1.28-3.29-2.46-3.87
				c-1.63-0.8-3.19-0.55-4.57,0.17c-1.62,0.84-3.01,2.27-4.12,2.45C4.07,157.99,1.98,158.51,0.96,160.58z"/>
			
				<ellipse transform="matrix(0.7749 -0.6321 0.6321 0.7749 -95.53 51.8298)" class="st0" cx="25" cy="160.03" rx="4.93" ry="3.47"/>
			
				<ellipse transform="matrix(0.5276 -0.8495 0.8495 0.5276 -117.8165 90.0345)" class="st0" cx="22.05" cy="150.95" rx="5.42" ry="3.55"/>
			
				<ellipse transform="matrix(0.0238 -0.9997 0.9997 0.0238 -145.2562 151.8542)" class="st0" cx="5.13" cy="150.3" rx="4.93" ry="3.47"/>
			
				<ellipse transform="matrix(0.3471 -0.9378 0.9378 0.3471 -128.7121 109.2459)" class="st0" cx="14.11" cy="147.07" rx="5.42" ry="3.55"/>
		</g>
	</g>
	<g>
		<g>
			<path class="st0" d="M56.79,179.12c-1.19,0.4-2.65,0.54-3.73-0.31c-2.61-2.04-1.43-5.61-2.39-8.47
				c-0.82-2.44-4.07-4.94-3.47-7.63c0.35-1.59,1.69-2.6,3.07-3.06c1.88-0.63,3.91,0.16,5.82,1.69c0.77,0.62,2.87,0.88,4.6,1.52
				c1.73,0.63,3.1,1.7,3.51,2.94c0.58,1.72,0.13,3.23-0.76,4.51c-1.05,1.5-2.65,2.69-2.97,3.77
				C59.76,176.38,58.98,178.38,56.79,179.12z"/>
			
				<ellipse transform="matrix(0.7282 -0.6854 0.6854 0.7282 -90.0371 83.6836)" class="st0" cx="60.49" cy="155.36" rx="4.93" ry="3.47"/>
			
				<ellipse transform="matrix(0.9113 -0.4118 0.4118 0.9113 -59.5376 42.6013)" class="st0" cx="69.1" cy="159.47" rx="5.42" ry="3.55"/>
			
				<ellipse transform="matrix(0.1074 -0.9942 0.9942 0.1074 -115.0402 224.53)" class="st0" cx="67.53" cy="176.33" rx="3.47" ry="4.93"/>
			
				<ellipse transform="matrix(0.9752 -0.2212 0.2212 0.9752 -35.3559 20.0705)" class="st0" cx="71.91" cy="167.86" rx="5.42" ry="3.55"/>
		</g>
		<g>
			<path class="st0" d="M59.41,112.36c-0.79,0.98-1.42,2.3-1,3.61c1.02,3.15,4.78,3.27,7.13,5.15c2.01,1.61,3.24,5.52,5.97,5.88
				c1.62,0.22,3.02-0.7,3.92-1.83c1.24-1.55,1.19-3.73,0.41-6.05c-0.32-0.94,0.16-3,0.16-4.84c0-1.84-0.54-3.49-1.56-4.31
				c-1.41-1.13-2.99-1.23-4.5-0.83c-1.77,0.47-3.43,1.56-4.56,1.5C63,110.51,60.85,110.56,59.41,112.36z"/>
			
				<ellipse transform="matrix(0.8939 -0.4483 0.4483 0.8939 -43.6725 49.6305)" class="st0" cx="82.99" cy="117.06" rx="4.93" ry="3.47"/>
			
				<ellipse transform="matrix(0.6998 -0.7143 0.7143 0.6998 -52.1878 90.9133)" class="st0" cx="82.08" cy="107.55" rx="5.42" ry="3.55"/>
			
				<ellipse transform="matrix(0.2408 -0.9706 0.9706 0.2408 -50.3136 142.1567)" class="st0" cx="65.71" cy="103.24" rx="4.93" ry="3.47"/>
			
				<ellipse transform="matrix(0.5429 -0.8398 0.8398 0.5429 -51.3231 109.7743)" class="st0" cx="75.18" cy="102.03" rx="5.42" ry="3.55"/>
		</g>
	</g>
	<g>
		<g>
			<path class="st0" d="M107.67,141.24c-1.26-0.03-2.68-0.4-3.4-1.56c-1.75-2.81,0.57-5.76,0.64-8.77c0.06-2.57-2.14-6.03-0.66-8.36
				c0.87-1.38,2.48-1.86,3.92-1.83c1.98,0.05,3.62,1.49,4.89,3.58c0.51,0.84,2.4,1.81,3.81,3c1.41,1.18,2.33,2.66,2.3,3.97
				c-0.04,1.81-0.98,3.08-2.26,3.98c-1.5,1.05-3.41,1.62-4.08,2.53C111.4,139.68,109.98,141.29,107.67,141.24z"/>
			
				<ellipse transform="matrix(0.9184 -0.3956 0.3956 0.9184 -37.8088 56.9774)" class="st0" cx="119.26" cy="120.17" rx="4.93" ry="3.47"/>
			
				<ellipse transform="matrix(0.9971 -0.0759 0.0759 0.9971 -9.2759 9.9274)" class="st0" cx="125.95" cy="126.98" rx="5.42" ry="3.55"/>
			
				<ellipse transform="matrix(0.4404 -0.8978 0.8978 0.4404 -61.3138 186.2072)" class="st0" cx="118.71" cy="142.29" rx="3.47" ry="4.93"/>
			
				<ellipse transform="matrix(0.125 -0.9922 0.9922 0.125 -24.7374 243.5832)" class="st0" cx="125.73" cy="135.82" rx="3.55" ry="5.42"/>
		</g>
		<g>
			<path class="st0" d="M132.92,79.39c-1.08,0.66-2.12,1.68-2.17,3.05c-0.12,3.31,3.37,4.71,4.94,7.28c1.34,2.2,1.16,6.29,3.61,7.57
				c1.44,0.76,3.08,0.38,4.31-0.38c1.69-1.03,2.4-3.1,2.45-5.54c0.02-0.99,1.17-2.77,1.8-4.5c0.63-1.73,0.69-3.47,0.01-4.58
				c-0.94-1.54-2.39-2.18-3.94-2.32c-1.82-0.16-3.76,0.3-4.8-0.15C136.93,78.88,134.89,78.19,132.92,79.39z"/>
			
				<ellipse transform="matrix(0.9932 -0.1162 0.1162 0.9932 -9.6353 18.4615)" class="st0" cx="153.48" cy="91.85" rx="4.93" ry="3.47"/>
			
				<ellipse transform="matrix(0.9017 -0.4324 0.4324 0.9017 -20.3953 75.5311)" class="st0" cx="155.88" cy="82.61" rx="5.42" ry="3.55"/>
			
				<ellipse transform="matrix(0.5577 -0.8301 0.8301 0.5577 2.2281 150.1082)" class="st0" cx="141.96" cy="72.96" rx="4.93" ry="3.47"/>
			
				<ellipse transform="matrix(0.797 -0.604 0.604 0.797 -14.6279 106.6054)" class="st0" cx="151.27" cy="75.06" rx="5.42" ry="3.55"/>
		</g>
	</g>
	<g>
		<g>
			<path class="st0" d="M166.35,128.05c-1.2-0.39-2.45-1.15-2.81-2.48c-0.87-3.2,2.21-5.35,3.15-8.22c0.8-2.45-0.31-6.39,1.78-8.19
				c1.23-1.07,2.91-1.07,4.28-0.62c1.88,0.62,3.04,2.47,3.65,4.83c0.25,0.96,1.78,2.43,2.78,3.97c1.01,1.54,1.46,3.22,1.06,4.46
				c-0.56,1.72-1.83,2.67-3.31,3.16c-1.73,0.57-3.73,0.57-4.64,1.24C170.37,127.63,168.54,128.77,166.35,128.05z"/>
			
				<ellipse transform="matrix(0.9935 -0.1141 0.1141 0.9935 -11.4907 21.6659)" class="st0" cx="183.52" cy="111.21" rx="4.93" ry="3.47"/>
			
				<ellipse transform="matrix(0.2147 -0.9767 0.9767 0.2147 30.7414 277.5492)" class="st0" cx="187.96" cy="119.66" rx="3.55" ry="5.42"/>
			
				<ellipse transform="matrix(0.6804 -0.7328 0.7328 0.6804 -40.4601 171.6815)" class="st0" cx="176.62" cy="132.23" rx="3.47" ry="4.93"/>
			
				<ellipse transform="matrix(0.4056 -0.914 0.914 0.4056 -6.9694 245.3989)" class="st0" cx="185.2" cy="128.06" rx="3.55" ry="5.42"/>
		</g>
		<g>
			<path class="st0" d="M208.35,76.1c-1.22,0.32-2.51,1-2.96,2.3c-1.06,3.14,1.87,5.48,2.63,8.39c0.65,2.49-0.7,6.36,1.27,8.29
				c1.17,1.14,2.84,1.25,4.24,0.88c1.92-0.5,3.19-2.28,3.94-4.6c0.31-0.94,1.92-2.31,3.02-3.79c1.1-1.48,1.66-3.12,1.33-4.39
				c-0.46-1.75-1.66-2.78-3.11-3.36c-1.7-0.68-3.69-0.8-4.55-1.53C212.34,76.76,210.59,75.51,208.35,76.1z"/>
			
				<ellipse transform="matrix(0.1749 -0.9846 0.9846 0.1749 92.6773 298.5088)" class="st0" cx="224.45" cy="93.96" rx="3.47" ry="4.93"/>
			
				<ellipse transform="matrix(0.988 -0.1542 0.1542 0.988 -10.488 36.4096)" class="st0" cx="229.41" cy="85.8" rx="5.42" ry="3.55"/>
			
				<ellipse transform="matrix(0.7732 -0.6341 0.6341 0.7732 3.6247 155.2355)" class="st0" cx="218.86" cy="72.55" rx="4.93" ry="3.47"/>
			
				<ellipse transform="matrix(0.9372 -0.3487 0.3487 0.9372 -12.6765 84.0576)" class="st0" cx="227.17" cy="77.24" rx="5.42" ry="3.55"/>
		</g>
	</g>
	<g>
		<g>
			<path class="st0" d="M245.23,132c-1.25-0.11-2.65-0.56-3.3-1.76c-1.58-2.91,0.91-5.72,1.17-8.72c0.22-2.56-1.77-6.15-0.16-8.38
				c0.95-1.32,2.58-1.71,4.03-1.59c1.97,0.17,3.53,1.7,4.67,3.86c0.46,0.87,2.29,1.95,3.62,3.22c1.34,1.27,2.17,2.79,2.06,4.1
				c-0.15,1.8-1.16,3.02-2.49,3.84c-1.56,0.96-3.5,1.42-4.22,2.28C249.05,130.66,247.53,132.19,245.23,132z"/>
			
				<ellipse transform="matrix(0.9404 -0.3401 0.3401 0.9404 -22.5924 94.422)" class="st0" cx="258.05" cy="111.66" rx="4.93" ry="3.47"/>
			
				<ellipse transform="matrix(0.9999 -0.0163 0.0163 0.9999 -1.9045 4.3295)" class="st0" cx="264.33" cy="118.85" rx="5.42" ry="3.55"/>
			
				<ellipse transform="matrix(0.4931 -0.87 0.87 0.4931 13.5369 290.6432)" class="st0" cx="256.19" cy="133.7" rx="3.47" ry="4.93"/>
			
				<ellipse transform="matrix(0.1839 -0.9829 0.9829 0.1839 89.6148 363.2665)" class="st0" cx="263.58" cy="127.66" rx="3.55" ry="5.42"/>
		</g>
		<g>
			<path class="st0" d="M274.12,71.77c-1.11,0.59-2.22,1.55-2.35,2.92c-0.31,3.3,3.09,4.9,4.5,7.56c1.21,2.27,0.79,6.35,3.15,7.77
				c1.4,0.84,3.05,0.56,4.33-0.12c1.75-0.93,2.58-2.95,2.78-5.39c0.08-0.98,1.34-2.69,2.07-4.38c0.73-1.69,0.89-3.42,0.28-4.57
				c-0.85-1.6-2.25-2.32-3.8-2.55c-1.81-0.27-3.77,0.07-4.78-0.43C278.16,71.49,276.16,70.68,274.12,71.77z"/>
			
				<ellipse transform="matrix(0.9984 -0.0568 0.0568 0.9984 -4.3775 16.8299)" class="st0" cx="293.91" cy="85.43" rx="4.93" ry="3.47"/>
			
				<ellipse transform="matrix(0.9258 -0.3779 0.3779 0.9258 -6.8397 117.8421)" class="st0" cx="296.85" cy="76.35" rx="5.42" ry="3.55"/>
			
				<ellipse transform="matrix(0.6062 -0.7953 0.7953 0.6062 59.2556 251.4486)" class="st0" cx="283.53" cy="65.89" rx="4.93" ry="3.47"/>
			
				<ellipse transform="matrix(0.8316 -0.5554 0.5554 0.8316 11.2271 174.1075)" class="st0" cx="292.7" cy="68.54" rx="5.42" ry="3.55"/>
		</g>
	</g>
	<g>
		<g>
			<path class="st0" d="M318.31,116.39c-1.25,0.15-2.71-0.01-3.59-1.06c-2.13-2.53-0.25-5.78-0.61-8.78
				c-0.3-2.56-2.97-5.67-1.84-8.18c0.67-1.49,2.19-2.2,3.63-2.36c1.97-0.23,3.8,0.96,5.35,2.85c0.63,0.76,2.63,1.45,4.2,2.43
				c1.56,0.97,2.68,2.3,2.84,3.6c0.21,1.8-0.53,3.19-1.67,4.26c-1.33,1.25-3.14,2.09-3.68,3.08
				C321.78,114.31,320.6,116.12,318.31,116.39z"/>
			
				<ellipse transform="matrix(0.8531 -0.5218 0.5218 0.8531 -0.9742 184.3186)" class="st0" cx="326.79" cy="93.89" rx="4.93" ry="3.47"/>
			
				<ellipse transform="matrix(0.9763 -0.2165 0.2165 0.9763 -13.6514 74.77)" class="st0" cx="334.38" cy="99.68" rx="5.42" ry="3.55"/>
			
				<ellipse transform="matrix(0.3086 -0.9512 0.9512 0.3086 117.5222 393.4073)" class="st0" cx="329.38" cy="115.86" rx="3.47" ry="4.93"/>
			
				<ellipse transform="matrix(0.9999 -0.017 0.017 0.9999 -1.7914 5.7046)" class="st0" cx="335.41" cy="108.46" rx="5.42" ry="3.55"/>
		</g>
		<g>
			<path class="st0" d="M334.53,51.58c-0.97,0.8-1.86,1.96-1.71,3.33c0.35,3.29,4.01,4.18,5.92,6.5c1.64,1.98,2.04,6.06,4.64,6.98
				c1.54,0.54,3.1-0.06,4.22-0.99c1.53-1.26,1.93-3.41,1.64-5.83c-0.12-0.98,0.77-2.91,1.15-4.71c0.38-1.8,0.19-3.53-0.64-4.54
				c-1.15-1.4-2.67-1.82-4.23-1.74c-1.82,0.1-3.68,0.83-4.77,0.53C338.43,50.51,336.31,50.11,334.53,51.58z"/>
			
				<ellipse transform="matrix(0.9667 -0.2559 0.2559 0.9667 -3.7355 93.2952)" class="st0" cx="356.65" cy="61" rx="4.93" ry="3.47"/>
			
				<ellipse transform="matrix(0.8312 -0.5559 0.5559 0.8312 31.7315 207.5555)" class="st0" cx="357.71" cy="51.52" rx="5.42" ry="3.55"/>
			
				<ellipse transform="matrix(0.4343 -0.9008 0.9008 0.4343 154.1979 333.4228)" class="st0" cx="342.57" cy="43.94" rx="4.93" ry="3.47"/>
			
				<ellipse transform="matrix(0.7033 -0.7109 0.7109 0.7033 72.6903 263.5591)" class="st0" cx="352.08" cy="44.7" rx="5.42" ry="3.55"/>
		</g>
	</g>
	<g>
		<g>
			<path class="st0" d="M387.37,85.87c-1.21,0.36-2.67,0.46-3.72-0.42c-2.54-2.12-1.26-5.65-2.13-8.53
				c-0.75-2.46-3.92-5.06-3.24-7.73c0.4-1.58,1.77-2.54,3.16-2.96c1.9-0.57,3.91,0.28,5.76,1.86c0.75,0.64,2.85,0.97,4.56,1.65
				c1.71,0.68,3.04,1.8,3.42,3.05c0.52,1.73,0.04,3.23-0.9,4.48c-1.09,1.46-2.73,2.61-3.09,3.68
				C390.42,83.22,389.58,85.2,387.37,85.87z"/>
			
				<ellipse transform="matrix(0.7484 -0.6632 0.6632 0.7484 57.2845 275.4872)" class="st0" cx="391.78" cy="62.23" rx="4.93" ry="3.47"/>
			
				<ellipse transform="matrix(0.9232 -0.3842 0.3842 0.9232 5.1345 158.9124)" class="st0" cx="400.26" cy="66.61" rx="5.42" ry="3.55"/>
			
				<ellipse transform="matrix(0.1372 -0.9905 0.9905 0.1372 260.9351 466.3858)" class="st0" cx="398.18" cy="83.41" rx="3.47" ry="4.93"/>
			
				<ellipse transform="matrix(0.9814 -0.1919 0.1919 0.9814 -6.919 78.693)" class="st0" cx="402.82" cy="75.07" rx="5.42" ry="3.55"/>
		</g>
		<g>
			<path class="st0" d="M391.99,19.23c-0.82,0.96-1.49,2.26-1.1,3.58c0.93,3.18,4.68,3.41,6.97,5.36c1.96,1.67,3.08,5.61,5.79,6.06
				c1.61,0.27,3.04-0.61,3.98-1.71c1.28-1.51,1.31-3.69,0.59-6.03c-0.29-0.94,0.25-3,0.3-4.84c0.06-1.84-0.43-3.51-1.43-4.36
				c-1.38-1.17-2.95-1.32-4.47-0.97c-1.78,0.42-3.48,1.46-4.6,1.36C395.63,17.48,393.48,17.47,391.99,19.23z"/>
			
				<ellipse transform="matrix(0.9069 -0.4213 0.4213 0.9069 28.2953 177.3138)" class="st0" cx="415.42" cy="24.62" rx="4.93" ry="3.47"/>
			
				<ellipse transform="matrix(0.721 -0.693 0.693 0.721 105.2811 291.6559)" class="st0" cx="414.8" cy="15.1" rx="5.42" ry="3.55"/>
			
				<ellipse transform="matrix(0.2698 -0.9629 0.9629 0.2698 281.1193 391.2968)" class="st0" cx="398.56" cy="10.29" rx="4.93" ry="3.47"/>
			
				<ellipse transform="matrix(0.5678 -0.8231 0.8231 0.5678 168.6307 339.9395)" class="st0" cx="408.06" cy="9.37" rx="5.42" ry="3.55"/>
		</g>
	</g>
</g>
</svg>
